# xmcd CD database file
#
# Track frame offsets:
#	150
#	12590
#	25626
#	35931
#	51625
#	64233
#	79122
#	86582
#	103491
#	119623
#	137392
#	151982
#	162496
#	177444
#	191685
#
# Disc length: 2598 seconds
#
# Revision: 0
# Processed by: cddbd v1.5.2PL0 Copyright (c) Steve Scherf et al.
# Submitted via: CDex 1.70beta2
#
DISCID=d80a240f
DTITLE=Berthold Schick - Trombonikus
DYEAR=2002
DGENRE=Blasmusik
TTITLE0=Der charmante Allgäuer
TTITLE1=Trombonikus
TTITLE2=Posaunen-Galopp
TTITLE3=Bergzauber
TTITLE4=Posaunen-Express
TTITLE5=Der fidele Kühnl
TTITLE6=Hummelflug
TTITLE7=Südtirolperlen
TTITLE8=Tenoristenflirt
TTITLE9=Glissando Polka
TTITLE10=Romantische Stunden
TTITLE11=Allgäuer Baritonexpress
TTITLE12=Auf der Jägerhütte
TTITLE13=Der Frosch
TTITLE14=Kehraus
EXTD=YEAR: 2002
EXTT0=
EXTT1=
EXTT2=
EXTT3=
EXTT4=
EXTT5=
EXTT6=
EXTT7=
EXTT8=
EXTT9=
EXTT10=
EXTT11=
EXTT12=
EXTT13=
EXTT14=
PLAYORDER=
